<?xml version="1.0" encoding="utf-8"?>
<!-- Generator: Adobe Illustrator 22.0.0, SVG Export Plug-In . SVG Version: 6.00 Build 0)  -->
<svg version="1.1" id="Layer_1" xmlns="http://www.w3.org/2000/svg" xmlns:xlink="http://www.w3.org/1999/xlink" x="0px" y="0px"
	 viewBox="0 0 88.6 17.4" style="enable-background:new 0 0 88.6 17.4;" xml:space="preserve">
<style type="text/css">
	.st0{fill:#6594CB;}
	.st1{fill:#6493CA;}
	.st2{fill:#6393CB;}
	.st3{fill:#6493CB;}
	.st4{fill:#6997CD;}
</style>
<title>React Logo</title>
<g>
	<path class="st0" d="M9.2,16.2C9.1,16.1,9.1,16,9,15.9c-0.6-0.5-0.9-1.2-0.5-2s1-1,1.8-1c1.1,0,2.2,0,3.2,0c0.5,0,1.1-0.1,1.6-0.3
		c0.9-0.3,1-1.1,0.2-1.7c-0.4-0.3-0.9-0.4-1.3-0.6c-1.4-0.6-1.7-1.5-0.7-2.8c0.1-0.2,0.3-0.4,0.5-0.6c0.5-0.6,0.3-1-0.3-1.3
		c-0.5-0.1-1-0.3-1.5-0.3c-1.7,0-3.3-0.1-5,0C4.9,5.3,4.3,6,4.2,8.1c0,1.8-0.1,3.5,0,5.3c0,1.1-0.2,2-0.9,2.8c-1,0-2,0-2.9,0
		c0-3.4,0-6.9,0-10.3c1.4-3.1,4-4.2,7.3-4.1c1.7,0,3.3,0,5,0c2.5,0.1,4.6,1.6,5.2,3.6c0.2,0.8,0.1,1.7-0.1,2.7
		c0.4,0.3,0.7,0.6,1.1,1c1.6,1.7,1.4,4.3-0.4,5.7c-0.8,0.6-1.8,1-2.6,1.5C13.5,16.2,11.4,16.2,9.2,16.2z M9.8,2.3
		c-1.6,0.1-3,0.2-4.4,0.4C3.5,2.9,1.2,4.5,1.2,7.4c0,1.6-0.1,3.1-0.2,4.7c0,0.8,0.1,1.5,0.1,2.3c0.1,0.7,0.5,1.1,1.2,1
		c0.7,0,1-0.5,1-1.2c0-0.3,0-0.7,0-1c0-1.7,0-3.4,0-5.2c0.1-2.4,1.1-3.5,3.5-3.6c1.5,0,3-0.1,4.6,0c0.8,0,1.7,0.2,2.4,0.6
		c1.1,0.5,1.2,1.4,0.4,2.4c-0.1,0.2-0.3,0.3-0.4,0.4c-0.6,0.8-0.5,1.3,0.4,1.8c0.5,0.2,1,0.4,1.4,0.7c1.3,0.9,1.1,2.2-0.2,2.9
		c-0.5,0.2-1.1,0.3-1.7,0.4c-1.2,0.1-2.4,0-3.5,0c-0.6,0-1.1,0.2-1.1,0.9s0.5,1,1.2,1.1c0.1,0,0.2,0,0.3,0c1.2,0,2.5,0,3.7,0
		c1.1,0,2.1-0.5,3-1c2-1.1,2.4-4.2,0.3-5.5C17,8.7,16.7,8.2,17,7.4c0.4-1.1,0.1-2.2-0.7-3c-0.8-0.7-1.7-1.3-2.7-1.6
		C12.4,2.4,11,2.4,9.8,2.3z"/>
	<path class="st1" d="M47.5,16.2c-0.1-0.2-0.4-0.4-0.4-0.6c-0.2-0.6-0.5-1.3-0.3-1.7c0.2-0.5,0.9-0.8,1.5-0.9c0.5-0.2,1.1,0,1.6,0
		c2.8-0.1,5.6-0.1,8.4-0.2c0.2,0,0.5,0,0.7-0.1c0.3-0.2,0.7-0.5,0.8-0.9c0-0.2-0.4-0.7-0.7-0.8c-0.6-0.2-1.3-0.1-1.9-0.2
		c-2.1-0.1-4.1-0.1-6.2-0.2c-1.3-0.1-2.5-0.6-3.4-1.6c-1.4-1.4-1.4-3.1,0-4.6c1.4-1.6,3.3-2,5.2-2c2.6-0.1,5.3-0.1,8,0
		c0.6,0,1.2,0.1,1.7,0.4c0.4,0.3,0.8,0.9,0.7,1.3c0,0.5-0.4,1.1-0.8,1.4c-0.5,0.3-1.2,0.3-1.8,0.3c-2.6,0-5.1,0-7.7,0.1
		C52,5.9,51.3,6,50.6,7c1,0.1,1.8,0.3,2.6,0.4c1.8,0.1,3.6,0,5.4,0c1.4,0.1,2.8,0.4,3.9,1.5c2.2,2.3,1.7,5.2-1.1,6.7
		c-0.5,0.2-0.9,0.4-1.4,0.7c-0.9,0-1.8,0-2.7,0c-1.1-0.5-2.2-0.5-3.2,0C51.9,16.2,49.7,16.2,47.5,16.2z M53.8,15.6
		c1.5,0,3,0.1,4.4,0c1-0.1,2.1-0.3,2.9-0.8c2.2-1.1,2.5-3.5,0.8-5.3c-1.1-1.2-2.5-1.4-4-1.5c-1.8-0.1-3.5,0-5.3,0
		c-0.6,0-1.2,0-1.7-0.3c-0.4-0.2-1-0.7-1-1c0-0.4,0.5-1,1-1.1c1-0.3,2-0.5,3-0.5c2.2-0.1,4.4,0,6.6,0c0.7,0,1.6,0.2,1.7-0.9
		C62.3,3.5,61.7,3,60.5,3c-3.1,0-6.2,0-9.3,0.3c-1,0.1-2.1,0.8-3,1.4c-1.3,1-1.3,2.6-0.1,3.8c1,1,2.3,1.5,3.7,1.5c1.8,0,3.6,0,5.4,0
		c0.8,0,1.5,0.2,2.3,0.5c0.6,0.2,0.9,0.7,0.8,1.4c0,0.7-0.4,1.1-1,1.3c-0.7,0.2-1.3,0.3-2,0.3c-2.7,0-5.5,0-8.2,0
		c-0.3,0-0.7-0.1-1,0.1c-0.3,0.1-0.7,0.4-0.8,0.7s0.2,0.8,0.4,1c0.3,0.2,0.7,0.2,1.1,0.3C50.7,15.6,52.2,15.6,53.8,15.6z"/>
	<path class="st2" d="M85.6,16.2c-1-2-1.9-3.9-2.9-5.9c-0.8-1.6-1.6-3.2-3.2-4.3c-1-0.7-1.8-0.7-2.8,0c-2,1.3-3.4,3.1-4.6,5.1
		c-1.1,1.7-2.2,3.4-3.3,5.2c-0.6,0-1.2,0-1.8,0c-1.2-1.3-1.3-1.5-0.5-3.1c1.5-3,3.1-5.8,5.5-8.2c0.4-0.4,0.9-0.8,1.3-1.2
		c4-2.8,7.6-2.2,10.7,1.5c2.2,2.6,3.3,5.6,4.4,8.7c0.4,1.1,0.1,1.5-1.1,2.2C86.8,16.2,86.2,16.2,85.6,16.2z M78.2,2.7
		c-1.6,0-3.7,1-5.1,2.3c-2.6,2.5-4.3,5.5-5.9,8.7c-0.1,0.2-0.2,0.5-0.2,0.7c0.1,0.3,0.2,0.8,0.5,0.9c0.3,0.1,0.8,0.1,1-0.1
		c0.4-0.2,0.6-0.6,0.9-1c0.5-0.8,1-1.7,1.5-2.5c1.4-2.5,3.1-4.8,5.5-6.4c1.4-0.9,2.4-0.9,3.6,0.1C80.8,6.2,81.7,7,82.3,8
		c1,1.8,1.8,3.7,2.7,5.5c0.3,0.6,0.5,1.2,0.9,1.7c0.3,0.3,0.9,0.3,1.3,0.2c0.2-0.1,0.5-0.7,0.4-1.1c-0.1-0.6-0.4-1.2-0.6-1.8
		c-1-2.8-2.3-5.4-4.4-7.6C81.4,3.6,79.8,2.9,78.2,2.7z"/>
	<path class="st3" d="M41.1,16.2c-0.5-0.7-1-1.3-1.4-2c-0.8-1.7-1.6-3.5-2.4-5.2c-0.6-1.3-1.6-2.4-2.8-3.2c-0.8-0.6-1.6-0.5-2.4,0
		c-1.8,1.1-3.2,2.7-4.3,4.5c-0.8,1.2-1.5,2.5-2.3,3.8c-0.5,0.7-1,1.4-1.5,2.1c-0.6,0-1.2,0-1.8,0c-1-1-1.1-2-0.4-3.3
		c1.4-2.5,2.7-5,4.6-7.1c1.8-2,3.8-3.6,6.6-3.7c2.2-0.1,3.9,0.8,5.4,2.3c2,2,3.4,4.4,4.3,7.1c0.3,0.7,0.5,1.5,0.8,2.2
		c0.5,1.5,0.4,1.8-1,2.6C42,16.2,41.6,16.2,41.1,16.2z M33.2,4.6c0.6,0.2,1.1,0.3,1.5,0.5c1.4,0.8,2.4,1.8,3.1,3.2
		c0.9,1.9,1.8,3.8,2.7,5.7c0.2,0.4,0.3,0.8,0.5,1c0.4,0.5,1,0.6,1.6,0.3s0.4-0.8,0.3-1.3c-0.3-0.9-0.7-1.8-1-2.8
		C41,9,39.8,6.9,38,5.1c-2.6-2.8-5.6-3.1-8.7-0.9c-3.5,2.5-5.4,6.2-7.1,9.9c-0.1,0.3,0.1,1,0.3,1.1c0.4,0.2,0.9,0.1,1.3-0.1
		c0.3-0.2,0.5-0.6,0.7-0.9c0.7-1.1,1.4-2.3,2-3.4c1.3-2.2,2.9-4.1,5-5.5C32.1,5,32.7,4.8,33.2,4.6z"/>
	<path class="st4" d="M54,16.2c1.1-0.5,2.2-0.5,3.2,0C56.2,16.2,55.1,16.2,54,16.2z"/>
</g>
</svg>
